<?xml version="1.0" encoding="UTF-8"?>
<svg width="40px" height="41px" viewBox="0 0 40 41" version="1.1" xmlns="http://www.w3.org/2000/svg" xmlns:xlink="http://www.w3.org/1999/xlink">
    <!-- Generator: Sketch 63.1 (92452) - https://sketch.com -->
    <title>logo pinterest</title>
    <desc>Created with Sketch.</desc>
    <g id="Pinterest" stroke="none" stroke-width="1" fill="none" fill-rule="evenodd">
        <g id="Top-banner--Desktop-EN-Copy-2" transform="translate(-45.000000, -12.000000)" fill-rule="nonzero">
            <g id="logo-pinterest" transform="translate(45.000000, 12.000000)">
                <circle id="Oval" fill="#FFFFFF" cx="20" cy="20" r="20"></circle>
                <path d="M20,0 C8.95473251,0 0,8.95473251 0,20 C0,28.4773663 5.26748971,35.7201646 12.7078189,38.6337449 C12.526749,37.0534979 12.3786008,34.617284 12.7736626,32.8888889 C13.1358025,31.3251029 15.1111111,22.9465021 15.1111111,22.9465021 C15.1111111,22.9465021 14.5185185,21.744856 14.5185185,19.9835391 C14.5185185,17.2016461 16.1316872,15.127572 18.1399177,15.127572 C19.8518519,15.127572 20.6748971,16.4115226 20.6748971,17.9423868 C20.6748971,19.654321 19.5884774,22.2222222 19.0123457,24.6090535 C18.5349794,26.600823 20.0164609,28.2304527 21.9753086,28.2304527 C25.5308642,28.2304527 28.2633745,24.4773663 28.2633745,19.0781893 C28.2633745,14.2880658 24.8230453,10.9465021 19.9012346,10.9465021 C14.2057613,10.9465021 10.8641975,15.2098765 10.8641975,19.6213992 C10.8641975,21.3333333 11.5226337,23.1769547 12.345679,24.18107 C12.5102881,24.3786008 12.526749,24.5596708 12.4773663,24.7572016 C12.3292181,25.382716 11.9835391,26.7489712 11.9176955,27.0288066 C11.8353909,27.3909465 11.6213992,27.473251 11.2427984,27.2921811 C8.74074074,26.1234568 7.17695473,22.4855967 7.17695473,19.5390947 C7.17695473,13.2345679 11.7530864,7.44032922 20.3950617,7.44032922 C27.3251029,7.44032922 32.7242798,12.3786008 32.7242798,18.9958848 C32.7242798,25.8930041 28.3786008,31.4403292 22.3539095,31.4403292 C20.3292181,31.4403292 18.4197531,30.3868313 17.7777778,29.1358025 C17.7777778,29.1358025 16.7736626,32.9547325 16.526749,33.8930041 C16.0823045,35.6378601 14.8641975,37.8106996 14.0411523,39.1440329 C15.9176955,39.7201646 17.8930041,40.0329218 19.9670782,40.0329218 C31.0123457,40.0329218 39.9671687,31.0781893 39.9671687,20.0329218 C40,8.95473251 31.0452675,0 20,0 Z" id="Path" fill="#E60019"></path>
            </g>
        </g>
    </g>
</svg>